<svg id="Layer_1" data-name="Layer 1" xmlns="http://www.w3.org/2000/svg" viewBox="0 0 683.37 795.98"><path d="M284,499.56c-1.43-.49-2.92-1.08-4.45-1.5a19.34,19.34,0,0,1-12.18-10c-1.32-2.45-2.42-5.05-3.55-7.62a5,5,0,0,1-.13-1.83c0-22.19-.08-44.38.08-66.56a18.07,18.07,0,0,1,3.11-9.67,14.58,14.58,0,0,1,1.94-2.87,2.47,2.47,0,0,1,2.26-.48c2.44,1.08,4.71,2.76,7.21,3.57a23.48,23.48,0,0,0,11.5,1.13,33.12,33.12,0,0,0,13.36-5.94c.08.81.17,1.3.18,1.79,0,4.2.12,8.41,0,12.61-.23,6.26,1.83,11.6,5,16.48a32.45,32.45,0,0,0,5.29,6.69c2.14,1.88,4.79,3.05,7.26,4.42a12.54,12.54,0,0,0,6.22,1.79c2,0,3.92.71,5.89.75,3.57.09,6.91-1.19,10.33-2.24,3.89-1.2,6.74-4.06,9.88-6.45,1.23-.93,2-2.61,3.19-4.22,7.32,10.15,16.89,14.8,28.11,12.64,11-2.11,18.66-9.66,22.92-21.6.16.11.49.33.8.58,1.94,1.59,3.93,3.11,5.77,4.82a20.05,20.05,0,0,1,3.84,4.33c2.54,4.31,4.85,8.79,7.22,13.22a14.9,14.9,0,0,1,1.58,3.62,2.61,2.61,0,0,1-1,2c-4.58,3.05-9.25,5.93-13.84,9a83.81,83.81,0,0,0-9.73,6.83c-2.49,2.21-4.5,5.14-6.57,7.9a18.18,18.18,0,0,0-2.38,4.49c-.85,2.25-1.23,4.73-2.18,6.91-1.17,2.72-.47,5.51-.72,8.26-.48,5.47,1.34,10.26,3.42,15a29.24,29.24,0,0,0,7.2,9.64,26.74,26.74,0,0,0,10.49,6.39c3.16.93,6.59.75,9.9,1a.74.74,0,0,0,.36,0c2.94-.84,2.8-.83,3,2.51a22.33,22.33,0,0,1-3.36,13.37c-2.36,3.66-5.2,7.32-9.65,8.16a29.77,29.77,0,0,1-5.51.8q-52.77.07-105.52,0c-3.37,0-6.11-1.89-8.87-4a18.15,18.15,0,0,1-6.1-8.73,34.14,34.14,0,0,1-1.27-5.57c-1.75-9.45-.34-19-.76-28.5A17.12,17.12,0,0,1,284,499.56Z" style="fill:#fff"/><path d="M276.77,621.13c0-.78-.09-1.45-.09-2.12,0-19.84,0-39.68,0-59.53,0-1.91.46-2.44,2.15-2.44q76.43.08,152.83,0c1.71,0,2.14.55,2.13,2.44-.06,19.71,0,39.41,0,59.12v2.53Z" style="fill:#fff"/><path d="M571.12,371.94c-2.35,3.37-4.58,6.87-7.09,10.08a84,84,0,0,1-7.52,8.43,54.31,54.31,0,0,1-7.15,5.74,67.18,67.18,0,0,1-8.85,5.38,70.64,70.64,0,0,1-8.82,3.15c-1.77.59-3.56,1.08-5.34,1.56a6.48,6.48,0,0,1-1.64.16c-4.18,0-8.35-.05-12.52,0a43.62,43.62,0,0,1-10.5-1.6,55.38,55.38,0,0,1-11.19-4.12A50.79,50.79,0,0,1,480.18,394a55.58,55.58,0,0,1-7.68-7,88.23,88.23,0,0,1-6.88-10.09A99.08,99.08,0,0,1,460,367a17.25,17.25,0,0,1-1.84-6.82c-.16-14.6.05-29.21-.17-43.81a25,25,0,0,1,2.74-11.78,49.58,49.58,0,0,1,7.36-11.71c2.1-2.33,3.74-5.24,6-7.37a101.4,101.4,0,0,1,10.17-8.29,59.24,59.24,0,0,1,8.84-5.4,72.23,72.23,0,0,1,8.82-3.14c1.7-.57,3.42-1.05,5.14-1.52a6.32,6.32,0,0,1,1.63-.17c4.48,0,9-.19,13.43.06a61.41,61.41,0,0,1,8.08,1.52c5.78,1.14,11.07,3.82,16.15,7a50.35,50.35,0,0,1,7,5.6A141.46,141.46,0,0,1,564,291.36c2.17,2.44,3.7,5.6,5.52,8.44l2,3.09H504.73c-2.4,0-2.4,0-2.4,2.71,0,15.7.32,31.42-.17,47.11-.17,5.35-.36,10.73-.64,16.1-.11,2.2.6,2.6,2.4,2.6,21.84-.07,43.69-.05,65.53-.05h1.27Z" style="fill:#fff"/><path d="M144.35,370.9a33.37,33.37,0,0,0,3.56.45c12.28,0,24.58-.54,36.82.2,8.79.54,17.56.4,26.34.71,1.82.07,2.41-.44,2.38-2.61-.11-9.44-.7-18.95.12-28.3,1-11.74.11-23.44.63-35.13.09-2.06-.58-2.37-2.27-2.53-16.5-1.56-33-.1-49.52-1-5.22-.29-10.45-.28-15.66-.66a1.42,1.42,0,0,1-1.07-.52c-.12-.28.13-.87.34-1.24,3.87-6.81,9.24-12.12,14.3-17.72a27.11,27.11,0,0,1,5.44-4.3,85.65,85.65,0,0,1,9.4-5.5c2.88-1.38,6-2.12,9-3.25,4-1.5,8.05-1.37,12.12-1.84s8.19.36,12.28.32c2.81,0,5.66,1.4,8.45,2.34a99,99,0,0,1,9.63,3.63,48.41,48.41,0,0,1,5.93,3.81c5.28,3.47,9.3,8.56,13.42,13.46a49,49,0,0,1,5.59,8.64c2.27,4.27,4.25,8.75,6.31,13.16a5.26,5.26,0,0,1,.49,2.11c0,7.5.64,15.1-.14,22.5-.89,8.51-.06,17-.71,25.41-.19,2.55-1.51,5.05-2.59,7.42a43.31,43.31,0,0,1-3.27,5.54,76.18,76.18,0,0,1-4.33,6.44,66.27,66.27,0,0,1-6.25,7,67.31,67.31,0,0,1-8.24,6.82,124.05,124.05,0,0,1-11.58,6.95,42.35,42.35,0,0,1-6.61,2.39,31.43,31.43,0,0,1-11.4,1.78c-1.21-.06-2.47.86-3.66.74-3.75-.38-7.5-.9-11.21-1.64a70.68,70.68,0,0,1-10.08-2.69c-2.32-.84-4.43-2.41-6.66-3.59a47,47,0,0,1-11.5-8.62c-3.39-3.43-6.82-6.81-10-10.48-1.55-1.8-2.58-4.18-3.8-6.33C145.67,373.59,145.11,372.37,144.35,370.9Z" style="fill:#fff"/><path d="M418.67,513.27a11.59,11.59,0,0,1-10.17-2.54c-3.68-3.26-7.47-6.55-8.47-12.49a35,35,0,0,1-.56-8.06c.43-6.52,2.85-11.89,8-15.42,4.7-3.22,9.38-6.47,14.08-9.71s9.27-6.4,13.92-9.58a20.22,20.22,0,0,1,1.94-1.06c2.48-1.3,2.77-2.69,1.32-5.14s-2.85-5.28-4.28-7.92c-2.15-4-4.33-7.88-6.46-11.84-1.69-3.16-3.34-6.36-5-9.56a65.64,65.64,0,0,1-4-8.32,20.08,20.08,0,0,1-.78-11.61,25.13,25.13,0,0,1,2.61-7.21c2.39-3.87,5.25-7.32,9.56-8.61,1.83-.55,3.66-1.12,5.49-1.66a1.52,1.52,0,0,1,.73-.05c4,.87,7.87,1.68,11.43,4.33,4.23,3.16,6.06,8,8.51,12.54,1.9,3.5,3.82,7,5.71,10.47,1.68,3.09,3.31,6.22,5,9.31,1.86,3.44,3.76,6.86,5.61,10.3,1.21,2.25,2.33,4.55,3.53,6.79,1.85,3.45,3.82,6.82,5.58,10.33,1.09,2.14,1.85,4.49,2.84,6.7,1.34,3,.94,6.24.64,9.27a20,20,0,0,1-3.5,10.1c-3.06,4.14-7,6.7-11.11,9.25-3.07,1.92-5.95,4.25-9,6.32-1.94,1.34-4,2.5-5.93,3.81-3.07,2.07-6.11,4.22-9.17,6.32-1.9,1.29-3.82,2.52-5.72,3.8-3.22,2.19-6.38,4.51-9.66,6.57C427.38,511.22,423.59,514.66,418.67,513.27Z" style="fill:#fff"/><path d="M360.54,357.29c0-18.06-.16-36.11.1-54.16.08-5.24,1.18-10.47,4.65-14.67,2.22-2.68,4.51-5.14,7.52-6.57a11.17,11.17,0,0,1,3.77-1.18c5.13-.4,9.95.1,14.53,3.6,3.06,2.34,4.33,5.89,6.6,8.7a6.07,6.07,0,0,1,.8,2.62,32.26,32.26,0,0,1,.86,5.73c.06,22,.65,44-.17,65.93-.58,15.65,0,31.28-.67,46.9-.11,2.64-1.61,5.27-2.72,7.76a15.39,15.39,0,0,1-2.88,4.13,15.89,15.89,0,0,1-9.88,5.21c-1.17.13-2.35.9-3.47.78a20.26,20.26,0,0,1-11.9-5.05c-3-2.69-4.67-6.2-6.19-9.87a14.89,14.89,0,0,1-.91-5.5C360.51,393.53,360.54,375.41,360.54,357.29Z" style="fill:#fff"/><path d="M313.26,361.83c0-17.15-.14-34.3.07-51.45.1-7.65,2.61-14.44,8.41-19a21.22,21.22,0,0,1,6.6-3,14.43,14.43,0,0,1,5.49-.84,17.36,17.36,0,0,1,11.11,5.08,23,23,0,0,1,6.08,9.49,21.89,21.89,0,0,1,1.08,6.27c.09,17.42.72,34.88-.13,52.26-.91,18.4-.06,36.77-.66,55.14-.07,2.08-1.17,4.16-2,6.14a11,11,0,0,1-2,3.12c-3.61,4-7.9,6.34-13.1,6.21a45.57,45.57,0,0,1-5.23,0c-3.53-.53-7-1.37-9.58-4.53-1.84-2.25-4.11-4.12-4.9-7.24a25.67,25.67,0,0,1-1.23-5.76C313.23,396.4,313.27,379.11,313.26,361.83Z" style="fill:#fff"/><path d="M305.66,339.3c0,10.88.14,21.77-.08,32.65a23.08,23.08,0,0,1-3.3,11.47,20.44,20.44,0,0,1-8,7.92,16.86,16.86,0,0,1-5.37,1.37,24.86,24.86,0,0,1-4.05,0A16.07,16.07,0,0,1,271.11,385c-2-3.08-4-6.59-3.66-11,.17-2.44-.81-5-.62-7.41,1.59-20.65.15-41.33.82-62,.08-2.68,1.69-5.36,2.82-7.92,2-4.55,5.89-6.57,9.76-8.5a9,9,0,0,1,1.86-.66c1.16-.29,2.32-.57,3.5-.75a5.15,5.15,0,0,1,2.37-.05,46,46,0,0,1,7.89,3.14c3.35,1.92,5.73,5.08,7.57,8.82a25.11,25.11,0,0,1,2.28,11.7C305.57,320,305.66,329.65,305.66,339.3Z" style="fill:#fff"/><path d="M409.42,393.34c-.05-.51-.14-1-.14-1.54,0-30.25,0-60.49.11-90.74,0-4.13,1.66-7.87,3.64-11.51,1.77-3.28,4.57-4.76,7.08-6.69A13.41,13.41,0,0,1,426,280.7a16.16,16.16,0,0,1,13.41,3.64c3.25,2.68,6.52,5.84,7.26,10.83a47.15,47.15,0,0,1,.74,6.79q.07,34.41,0,68.83c0,2.5-.32,2.47-2.45,1.82a38.21,38.21,0,0,0-7.46-1.22c-6.13-.62-11.52,2.1-16.53,5.44s-8.43,8.59-10.75,14.64a10.21,10.21,0,0,0-.32,1.89Z" style="fill:#fff"/><text transform="matrix(0.15, -0.99, 0.99, 0.15, 108.87, 387.55)" style="font-size:52.43098068237305px;fill:#fff;font-family:Arial-Black, Arial;font-weight:800">K</text><text transform="translate(114.64 347.43) rotate(-72.18)" style="font-size:52.43098068237305px;fill:#fff;font-family:Arial-Black, Arial;font-weight:800">O</text><text transform="translate(127.58 307.17) rotate(-62.79)" style="font-size:52.43098068237305px;fill:#fff;font-family:Arial-Black, Arial;font-weight:800">R</text><text transform="matrix(0.59, -0.81, 0.81, 0.59, 145.64, 272.08)" style="font-size:52.43098068237305px;fill:#fff;font-family:Arial-Black, Arial;font-weight:800">P</text><text transform="translate(167.09 242.39) rotate(-45.49)" style="font-size:52.43098068237305px;fill:#fff;font-family:Arial-Black, Arial;font-weight:800">S</text><text transform="matrix(0.77, -0.63, 0.63, 0.77, 193.3, 216.45)" style="font-size:52.43098068237305px;fill:#fff;font-family:Arial-Black, Arial;font-weight:800"> </text><text transform="translate(205.77 205.48) rotate(-33.16)" style="font-size:52.43098068237305px;fill:#fff;font-family:Arial-Black, Arial;font-weight:800">P</text><text transform="translate(236.2 185.2) rotate(-24.17)" style="font-size:52.43098068237305px;fill:#fff;font-family:Arial-Black, Arial;font-weight:800">O</text><text transform="matrix(0.96, -0.26, 0.26, 0.96, 274.91, 168.07)" style="font-size:52.43098068237305px;fill:#fff;font-family:Arial-Black, Arial;font-weight:800">L</text><text transform="matrix(0.99, -0.16, 0.16, 0.99, 307.79, 159.4)" style="font-size:52.43098068237305px;fill:#fff;font-family:Arial-Black, Arial;font-weight:800">I</text><text transform="translate(326.91 155.76) rotate(-2.62)" style="font-size:52.43098068237305px;fill:#fff;font-family:Arial-Black, Arial;font-weight:800">T</text><text transform="translate(363.72 154.52) rotate(3.87)" style="font-size:52.43098068237305px;fill:#fff;font-family:Arial-Black, Arial;font-weight:800">I</text><text transform="translate(383.18 155.29) rotate(10.35)" style="font-size:52.43098068237305px;fill:#fff;font-family:Arial-Black, Arial;font-weight:800">E</text><text transform="matrix(0.96, 0.28, -0.28, 0.96, 419.36, 162.39)" style="font-size:52.43098068237305px;fill:#fff;font-family:Arial-Black, Arial;font-weight:800"> </text><text transform="matrix(0.92, 0.38, -0.38, 0.92, 435.43, 166.52)" style="font-size:52.43098068237305px;fill:#fff;font-family:Arial-Black, Arial;font-weight:800">S</text><text transform="translate(469.31 180.27) rotate(31.71)" style="font-size:52.43098068237305px;fill:#fff;font-family:Arial-Black, Arial;font-weight:800">U</text><text transform="matrix(0.75, 0.66, -0.66, 0.75, 505.27, 202.49)" style="font-size:52.43098068237305px;fill:#fff;font-family:Arial-Black, Arial;font-weight:800">R</text><text transform="translate(534.79 229.04) rotate(48.05)" style="font-size:52.43098068237305px;fill:#fff;font-family:Arial-Black, Arial;font-weight:800">I</text><text transform="translate(548.33 242.92) rotate(55.18)" style="font-size:52.43098068237305px;fill:#fff;font-family:Arial-Black, Arial;font-weight:800">N</text><text transform="translate(572.24 277.24) rotate(64.37)" style="font-size:52.43098068237305px;fill:#fff;font-family:Arial-Black, Arial;font-weight:800">A</text><text transform="translate(589.74 312.5) rotate(74.47)" style="font-size:52.43098068237305px;fill:#fff;font-family:Arial-Black, Arial;font-weight:800">M</text><text transform="matrix(0.1, 0.99, -0.99, 0.1, 602.24, 358.86)" style="font-size:52.43098068237305px;fill:#fff;font-family:Arial-Black, Arial;font-weight:800">E</text><text transform="translate(82.47 505.9) rotate(65.77)" style="font-size:52.43096923828125px;fill:#fff;font-family:Arial-Black, Arial;font-weight:800">T</text><text transform="matrix(0.54, 0.84, -0.84, 0.54, 100.31, 544.69)" style="font-size:52.43096923828125px;fill:#fff;font-family:Arial-Black, Arial;font-weight:800">E</text><text transform="translate(123.66 580.71) rotate(48.69)" style="font-size:52.43096923828125px;fill:#fff;font-family:Arial-Black, Arial;font-weight:800">C</text><text transform="matrix(0.77, 0.63, -0.63, 0.77, 154.4, 615.2)" style="font-size:52.43096923828125px;fill:#fff;font-family:Arial-Black, Arial;font-weight:800">H</text><text transform="translate(192.76 646.06) rotate(29.77)" style="font-size:52.43096923828125px;fill:#fff;font-family:Arial-Black, Arial;font-weight:800">N</text><text transform="translate(234.62 668.9) rotate(22.76)" style="font-size:52.43096923828125px;fill:#fff;font-family:Arial-Black, Arial;font-weight:800">I</text><text transform="translate(256.75 678.48) rotate(16.37)" style="font-size:52.43096923828125px;fill:#fff;font-family:Arial-Black, Arial;font-weight:800">S</text><text transform="translate(297.96 690.31) rotate(7.71)" style="font-size:52.43096923828125px;fill:#fff;font-family:Arial-Black, Arial;font-weight:800">C</text><text transform="translate(343.82 696.19) rotate(-1.65)" style="font-size:52.43096923828125px;fill:#fff;font-family:Arial-Black, Arial;font-weight:800">H</text><text transform="translate(391.29 693.82) rotate(-8.43)" style="font-size:52.43096923828125px;fill:#fff;font-family:Arial-Black, Arial;font-weight:800"> </text><text transform="matrix(0.97, -0.26, 0.26, 0.97, 412.34, 691.15)" style="font-size:52.43096923828125px;fill:#fff;font-family:Arial-Black, Arial;font-weight:800">B</text><text transform="matrix(0.92, -0.4, 0.4, 0.92, 456.41, 678.98)" style="font-size:52.43096923828125px;fill:#fff;font-family:Arial-Black, Arial;font-weight:800">E</text><text transform="translate(495.89 661.71) rotate(-32.37)" style="font-size:52.43096923828125px;fill:#fff;font-family:Arial-Black, Arial;font-weight:800">H</text><text transform="matrix(0.75, -0.66, 0.66, 0.75, 536.83, 635)" style="font-size:52.43096923828125px;fill:#fff;font-family:Arial-Black, Arial;font-weight:800">E</text><text transform="matrix(0.65, -0.76, 0.76, 0.65, 568.64, 606.47)" style="font-size:52.43096923828125px;fill:#fff;font-family:Arial-Black, Arial;font-weight:800">E</text><text transform="matrix(0.52, -0.85, 0.85, 0.52, 596.11, 573.55)" style="font-size:52.43096923828125px;fill:#fff;font-family:Arial-Black, Arial;font-weight:800">R</text></svg>