<svg id="Layer_1" data-name="Layer 1" xmlns="http://www.w3.org/2000/svg" viewBox="0 0 683.37 795.96"><defs><style>.cls-1{font-size:52.43px;}.cls-1,.cls-2{fill:#010101;font-family:Arial-Black, Arial;font-weight:800;}.cls-2{font-size:52.43px;}</style></defs><path d="M284.08,499.51c-1.43-.49-2.92-1.08-4.45-1.5a19.35,19.35,0,0,1-12.19-10c-1.31-2.45-2.41-5-3.54-7.62a5,5,0,0,1-.13-1.83c0-22.18-.09-44.37.08-66.56a18,18,0,0,1,3.11-9.66,15.39,15.39,0,0,1,1.93-2.88,2.46,2.46,0,0,1,2.27-.47c2.44,1.08,4.71,2.75,7.21,3.56a23.6,23.6,0,0,0,11.5,1.14,33.26,33.26,0,0,0,13.36-5.94c.08.8.17,1.29.17,1.78,0,4.21.13,8.41,0,12.61-.24,6.26,1.83,11.61,5,16.48a32.19,32.19,0,0,0,5.29,6.69c2.14,1.88,4.79,3.05,7.26,4.43a12.74,12.74,0,0,0,6.22,1.79c2,0,3.92.7,5.89.75,3.57.09,6.91-1.2,10.33-2.25,3.89-1.2,6.73-4.05,9.88-6.44,1.23-.94,2-2.61,3.19-4.23,7.32,10.15,16.89,14.8,28.11,12.64,10.95-2.11,18.66-9.65,22.92-21.6.16.12.49.33.8.59,1.93,1.59,3.93,3.1,5.77,4.81a20.05,20.05,0,0,1,3.84,4.33c2.54,4.31,4.85,8.79,7.22,13.23a15.23,15.23,0,0,1,1.58,3.61,2.59,2.59,0,0,1-1,2c-4.58,3.05-9.25,5.93-13.84,9a83.89,83.89,0,0,0-9.73,6.84c-2.49,2.2-4.5,5.14-6.57,7.89a18.36,18.36,0,0,0-2.38,4.49c-.85,2.25-1.23,4.73-2.18,6.91-1.17,2.73-.47,5.52-.72,8.26-.49,5.48,1.34,10.27,3.42,15a29.39,29.39,0,0,0,7.2,9.65,26.75,26.75,0,0,0,10.48,6.38c3.17.93,6.59.75,9.9,1.06a1.17,1.17,0,0,0,.37,0c2.94-.85,2.8-.84,3,2.51a22.32,22.32,0,0,1-3.36,13.36c-2.36,3.66-5.2,7.32-9.65,8.17a30.77,30.77,0,0,1-5.51.8q-52.77.06-105.52,0c-3.37,0-6.11-1.88-8.87-4a18.07,18.07,0,0,1-6.1-8.72,34.5,34.5,0,0,1-1.27-5.58c-1.75-9.44-.34-19-.76-28.5A17.26,17.26,0,0,1,284.08,499.51Z"/><path d="M276.81,621.08c0-.78-.09-1.45-.09-2.12,0-19.84,0-39.68,0-59.52,0-1.92.46-2.45,2.15-2.44q76.41.06,152.83,0c1.71,0,2.14.55,2.13,2.45-.06,19.7,0,39.41,0,59.11v2.53Z"/><path d="M571.15,371.89c-2.35,3.38-4.57,6.87-7.08,10.09a83.93,83.93,0,0,1-7.52,8.42,55.22,55.22,0,0,1-7.15,5.75,69,69,0,0,1-8.85,5.38,74,74,0,0,1-8.82,3.15c-1.77.59-3.56,1.08-5.35,1.56a6.35,6.35,0,0,1-1.63.15c-4.18,0-8.35,0-12.52,0a43.62,43.62,0,0,1-10.5-1.6,55.38,55.38,0,0,1-11.19-4.12,50.79,50.79,0,0,1-10.32-6.78,55.51,55.51,0,0,1-7.68-7,88.36,88.36,0,0,1-6.88-10.1,99.08,99.08,0,0,1-5.58-9.85,17,17,0,0,1-1.84-6.82c-.16-14.6.05-29.21-.17-43.8a25,25,0,0,1,2.74-11.79,49.8,49.8,0,0,1,7.35-11.7c2.11-2.34,3.75-5.25,6-7.38a102.66,102.66,0,0,1,10.18-8.29,58.36,58.36,0,0,1,8.84-5.39,72.28,72.28,0,0,1,8.82-3.15c1.7-.56,3.42-1,5.14-1.52a6.32,6.32,0,0,1,1.63-.17c4.48,0,9-.19,13.43.07a59.38,59.38,0,0,1,8.07,1.52c5.79,1.14,11.08,3.81,16.16,7a48.91,48.91,0,0,1,7,5.59A137.91,137.91,0,0,1,564,291.32c2.17,2.44,3.7,5.59,5.52,8.43l2,3.09H504.77c-2.4,0-2.4,0-2.4,2.7,0,15.71.32,31.42-.17,47.11-.17,5.35-.36,10.74-.64,16.1-.11,2.21.6,2.61,2.39,2.6q32.77-.09,65.54,0h1.27Z"/><path d="M144.39,370.85a33.37,33.37,0,0,0,3.56.45c12.28,0,24.58-.54,36.82.21,8.79.54,17.56.39,26.34.7,1.82.07,2.41-.44,2.38-2.61-.12-9.44-.7-19,.11-28.3,1-11.74.12-23.43.64-35.13.09-2.05-.58-2.37-2.27-2.53-16.5-1.56-33-.1-49.52-1-5.22-.29-10.45-.28-15.66-.66-.38,0-.93-.21-1.07-.52s.13-.87.34-1.23c3.87-6.81,9.24-12.13,14.3-17.72a26.7,26.7,0,0,1,5.43-4.3,86.82,86.82,0,0,1,9.41-5.51c2.88-1.38,6-2.12,9-3.25,3.95-1.5,8-1.37,12.12-1.84s8.19.36,12.28.33c2.81,0,5.66,1.39,8.44,2.33a98.25,98.25,0,0,1,9.64,3.64,48.33,48.33,0,0,1,5.93,3.8c5.28,3.47,9.3,8.56,13.42,13.46a49.56,49.56,0,0,1,5.59,8.64c2.27,4.27,4.25,8.75,6.31,13.17a5.21,5.21,0,0,1,.49,2.1c0,7.51.64,15.1-.14,22.51-.9,8.51-.06,17-.71,25.41-.19,2.54-1.52,5-2.59,7.41a44.13,44.13,0,0,1-3.27,5.55c-1.4,2.18-2.74,4.43-4.33,6.43a66.38,66.38,0,0,1-6.25,7,67.23,67.23,0,0,1-8.24,6.81,124.05,124.05,0,0,1-11.58,6.95,41.35,41.35,0,0,1-6.61,2.39,31.22,31.22,0,0,1-11.4,1.78c-1.21-.05-2.47.87-3.66.75-3.75-.39-7.5-.9-11.21-1.65a69.38,69.38,0,0,1-10.08-2.69c-2.32-.83-4.43-2.41-6.66-3.58a47.11,47.11,0,0,1-11.5-8.62c-3.39-3.43-6.82-6.82-10-10.49-1.55-1.8-2.58-4.18-3.8-6.33C145.71,373.55,145.14,372.33,144.39,370.85Z"/><path d="M418.71,513.23a11.59,11.59,0,0,1-10.17-2.55c-3.68-3.25-7.48-6.55-8.47-12.49a35,35,0,0,1-.56-8.05c.43-6.52,2.85-11.9,8-15.42,4.7-3.23,9.38-6.48,14.08-9.72s9.27-6.39,13.92-9.57a20.31,20.31,0,0,1,1.94-1.07c2.48-1.3,2.77-2.69,1.32-5.14s-2.85-5.28-4.28-7.91c-2.15-4-4.34-7.88-6.46-11.85q-2.53-4.74-5-9.56a64.35,64.35,0,0,1-4-8.32,20,20,0,0,1-.78-11.6,25.09,25.09,0,0,1,2.61-7.22c2.39-3.87,5.25-7.32,9.56-8.61,1.83-.55,3.66-1.12,5.49-1.66a1.51,1.51,0,0,1,.73-.05c4,.87,7.87,1.68,11.43,4.33,4.23,3.16,6.06,8,8.51,12.55,1.9,3.49,3.82,7,5.71,10.46,1.67,3.1,3.31,6.22,5,9.32,1.86,3.44,3.76,6.85,5.61,10.3,1.21,2.24,2.33,4.54,3.53,6.79,1.85,3.44,3.82,6.82,5.58,10.32,1.09,2.15,1.85,4.5,2.83,6.71,1.34,3,.95,6.23.65,9.26a20,20,0,0,1-3.5,10.11c-3.06,4.14-7,6.7-11.11,9.24-3.08,1.93-5.95,4.25-9,6.33-1.94,1.33-4,2.49-5.93,3.81-3.07,2.07-6.11,4.22-9.17,6.31-1.9,1.29-3.82,2.52-5.72,3.81-3.22,2.18-6.38,4.5-9.66,6.57C427.42,511.18,423.63,514.62,418.71,513.23Z"/><path d="M360.58,357.24c0-18.05-.17-36.11.1-54.15.08-5.24,1.18-10.48,4.65-14.68,2.22-2.68,4.51-5.14,7.52-6.57a11.1,11.1,0,0,1,3.77-1.18c5.13-.39,9.95.1,14.53,3.6,3.06,2.34,4.33,5.89,6.6,8.7a6.07,6.07,0,0,1,.8,2.62,32.23,32.23,0,0,1,.86,5.74c.06,22,.65,44-.17,65.92-.58,15.66,0,31.29-.67,46.9-.11,2.64-1.61,5.28-2.73,7.76A15.18,15.18,0,0,1,393,426a15.89,15.89,0,0,1-9.88,5.21c-1.17.13-2.35.89-3.48.77a20.16,20.16,0,0,1-11.89-5c-3-2.7-4.67-6.21-6.19-9.88a14.82,14.82,0,0,1-.91-5.5C360.55,393.48,360.58,375.36,360.58,357.24Z"/><path d="M313.3,361.78c0-17.15-.14-34.3.07-51.44.1-7.66,2.61-14.45,8.41-19a21.45,21.45,0,0,1,6.6-3,14.23,14.23,0,0,1,5.49-.83A17.29,17.29,0,0,1,345,292.59a23,23,0,0,1,6.08,9.49,22,22,0,0,1,1.08,6.27c.09,17.42.72,34.89-.13,52.26-.91,18.4-.06,36.78-.66,55.15-.07,2.07-1.17,4.15-2,6.14a10.68,10.68,0,0,1-2,3.11c-3.61,4-7.9,6.35-13.1,6.21a41.44,41.44,0,0,1-5.23-.05c-3.53-.52-7-1.37-9.58-4.53-1.84-2.25-4.12-4.11-4.9-7.24a25.67,25.67,0,0,1-1.23-5.76C313.26,396.35,313.3,379.07,313.3,361.78Z"/><path d="M305.69,339.25c0,10.89.15,21.78-.07,32.66a23.14,23.14,0,0,1-3.3,11.46,20.53,20.53,0,0,1-8,7.93,16.85,16.85,0,0,1-5.37,1.36,24.87,24.87,0,0,1-4.05,0,16.08,16.08,0,0,1-13.71-7.79c-2-3.07-4-6.59-3.66-11,.17-2.43-.81-5-.63-7.4,1.6-20.65.15-41.34.82-62,.09-2.68,1.7-5.36,2.83-7.91,2-4.55,5.89-6.57,9.76-8.51a8.93,8.93,0,0,1,1.86-.65c1.16-.29,2.32-.57,3.5-.76a5.14,5.14,0,0,1,2.37,0,45.2,45.2,0,0,1,7.89,3.14c3.35,1.92,5.73,5.07,7.56,8.81a25,25,0,0,1,2.29,11.7C305.6,320,305.69,329.61,305.69,339.25Z"/><path d="M409.46,393.3c0-.52-.15-1-.15-1.54,0-30.25,0-60.5.12-90.74,0-4.14,1.66-7.87,3.63-11.52,1.78-3.27,4.58-4.75,7.08-6.69a13.62,13.62,0,0,1,5.9-2.16,16.2,16.2,0,0,1,13.41,3.64c3.25,2.68,6.52,5.84,7.26,10.83a47.31,47.31,0,0,1,.74,6.79q.07,34.41,0,68.83c0,2.5-.32,2.48-2.45,1.82a39,39,0,0,0-7.46-1.22c-6.13-.62-11.52,2.1-16.53,5.44s-8.43,8.6-10.75,14.64a9.69,9.69,0,0,0-.32,1.89Z"/><text class="cls-1" transform="translate(108.87 387.54) rotate(-81.46)">K</text><text class="cls-1" transform="matrix(0.31, -0.95, 0.95, 0.31, 114.64, 347.42)">O</text><text class="cls-1" transform="translate(127.58 307.17) rotate(-62.79)">R</text><text class="cls-1" transform="matrix(0.59, -0.81, 0.81, 0.59, 145.63, 272.07)">P</text><text class="cls-1" transform="translate(167.09 242.39) rotate(-45.49)">S</text><text class="cls-1" transform="matrix(0.77, -0.63, 0.63, 0.77, 193.3, 216.44)"> </text><text class="cls-1" transform="translate(205.77 205.48) rotate(-33.16)">P</text><text class="cls-1" transform="translate(236.19 185.19) rotate(-24.17)">O</text><text class="cls-1" transform="translate(274.91 168.07) rotate(-15.36)">L</text><text class="cls-1" transform="translate(307.79 159.4) rotate(-9.14)">I</text><text class="cls-1" transform="translate(326.91 155.76) rotate(-2.62)">T</text><text class="cls-1" transform="matrix(1, 0.07, -0.07, 1, 363.72, 154.52)">I</text><text class="cls-1" transform="translate(383.18 155.29) rotate(10.35)">E</text><text class="cls-1" transform="translate(419.39 162.4) rotate(16.48)"> </text><text class="cls-1" transform="translate(435.45 166.53) rotate(22.62)">S</text><text class="cls-1" transform="matrix(0.85, 0.53, -0.53, 0.85, 469.31, 180.27)">U</text><text class="cls-1" transform="translate(505.27 202.49) rotate(41.18)">R</text><text class="cls-1" transform="translate(534.79 229.04) rotate(48.05)">I</text><text class="cls-1" transform="translate(548.33 242.93) rotate(55.18)">N</text><text class="cls-1" transform="matrix(0.43, 0.9, -0.9, 0.43, 572.24, 277.24)">A</text><text class="cls-1" transform="translate(589.74 312.51) rotate(74.47)">M</text><text class="cls-1" transform="matrix(0.1, 1, -1, 0.1, 602.23, 358.86)">E</text><text class="cls-2" transform="matrix(0.41, 0.91, -0.91, 0.41, 82.55, 505.88)">T</text><text class="cls-2" transform="translate(100.39 544.67) rotate(57.41)">E</text><text class="cls-2" transform="translate(123.74 580.69) rotate(48.69)">C</text><text class="cls-2" transform="matrix(0.77, 0.63, -0.63, 0.77, 154.48, 615.17)">H</text><text class="cls-2" transform="matrix(0.87, 0.5, -0.5, 0.87, 192.85, 646.04)">N</text><text class="cls-2" transform="translate(234.7 668.87) rotate(22.76)">I</text><text class="cls-2" transform="matrix(0.96, 0.28, -0.28, 0.96, 256.83, 678.46)">S</text><text class="cls-2" transform="translate(298.04 690.29) rotate(7.71)">C</text><text class="cls-2" transform="matrix(1, -0.03, 0.03, 1, 343.91, 696.17)">H</text><text class="cls-2" transform="translate(391.38 693.8) rotate(-8.43)"> </text><text class="cls-2" transform="translate(412.42 691.12) rotate(-14.84)">B</text><text class="cls-2" transform="translate(456.49 678.95) rotate(-23.38)">E</text><text class="cls-2" transform="translate(495.98 661.69) rotate(-32.37)">H</text><text class="cls-2" transform="translate(536.92 634.97) rotate(-41.41)">E</text><text class="cls-2" transform="translate(568.72 606.44) rotate(-49.79)">E</text><text class="cls-2" transform="matrix(0.52, -0.85, 0.85, 0.52, 596.2, 573.53)">R</text></svg>